HIERARCHY
ROOT RootJoint
{
    OFFSET   0.000000   0.000000   0.000000
    CHANNELS 6 Xposition Yposition Zposition Xrotation Yrotation Zrotation
    JOINT pelvis_lowerback
    {
        OFFSET   0.000000   0.093605   0.000000
        CHANNELS 3 Xrotation Yrotation Zrotation
        JOINT lowerback_torso
        {
            OFFSET   0.000000   0.100000   0.000000
            CHANNELS 3 Xrotation Yrotation Zrotation
            JOINT torso_head
            {
                OFFSET   0.000000   0.282350   0.000000
                CHANNELS 3 Xrotation Yrotation Zrotation
                End Site
                {
                    OFFSET   0.000000   0.192650   0.000000
                }
            }
            JOINT rTorso_Clavicle
            {
                OFFSET  -0.001000   0.157500   0.000000
                CHANNELS 3 Xrotation Yrotation Zrotation
                JOINT rShoulder
                {
                    OFFSET  -0.117647   0.000000   0.000000
                    CHANNELS 3 Xrotation Yrotation Zrotation
                    JOINT rElbow
                    {
                        OFFSET  -0.245000   0.000000   0.000000
                        CHANNELS 3 Xrotation Yrotation Zrotation
                        JOINT rWrist
                        {
                            OFFSET  -0.240000   0.000000   0.000000
                            CHANNELS 3 Xrotation Yrotation Zrotation
                            End Site
                            {
                                OFFSET  -0.116353  -0.002500   0.000000
                            }
                        }
                    }
                }
            }
            JOINT lTorso_Clavicle
            {
                OFFSET   0.001000   0.157500   0.000000
                CHANNELS 3 Xrotation Yrotation Zrotation
                JOINT lShoulder
                {
                    OFFSET   0.117647   0.000000   0.000000
                    CHANNELS 3 Xrotation Yrotation Zrotation
                    JOINT lElbow
                    {
                        OFFSET   0.245000   0.000000   0.000000
                        CHANNELS 3 Xrotation Yrotation Zrotation
                        JOINT lWrist
                        {
                            OFFSET   0.240000   0.000000   0.000000
                            CHANNELS 3 Xrotation Yrotation Zrotation
                            End Site
                            {
                                OFFSET   0.116353  -0.002500   0.000000
                            }
                        }
                    }
                }
            }
        }
    }
    JOINT rHip
    {
        OFFSET  -0.100000  -0.051395   0.000000
        CHANNELS 3 Xrotation Yrotation Zrotation
        JOINT rKnee
        {
            OFFSET   0.000000  -0.410000   0.000000
            CHANNELS 3 Xrotation Yrotation Zrotation
            JOINT rAnkle
            {
                OFFSET   0.000000  -0.390000   0.000000
                CHANNELS 3 Xrotation Yrotation Zrotation
                JOINT rToeJoint
                {
                    OFFSET   0.000000  -0.050000   0.130000
                    CHANNELS 3 Xrotation Yrotation Zrotation
                    End Site
                    {
                        OFFSET  -0.010000   0.002000   0.060000
                    }
                }
            }
        }
    }
    JOINT lHip
    {
        OFFSET   0.100000  -0.051395   0.000000
        CHANNELS 3 Xrotation Yrotation Zrotation
        JOINT lKnee
        {
            OFFSET   0.000000  -0.410000   0.000000
            CHANNELS 3 Xrotation Yrotation Zrotation
            JOINT lAnkle
            {
                OFFSET   0.000000  -0.390000   0.000000
                CHANNELS 3 Xrotation Yrotation Zrotation
                JOINT lToeJoint
                {
                    OFFSET   0.000000  -0.050000   0.130000
                    CHANNELS 3 Xrotation Yrotation Zrotation
                    End Site
                    {
                        OFFSET   0.010000   0.002000   0.060000
                    }
                }
            }
        }
    }
}
MOTION
Frames: 15
Frame Time:   0.008333
 -3.641313   0.905338   4.470604  21.195811  80.437263 -26.261700   5.314193   1.158400  -0.081043  -5.276391  -2.735783   2.907311  -2.361873  -0.325171   1.444631  -2.299404  -4.122433   2.102526 -19.965092  -1.719384  13.848909  -0.089952  66.029907   0.070635   3.960178   4.733034 -25.844667  -3.274696   0.751541  -0.333656 -15.257650  -3.049793 -22.060960  -0.041741 -75.673843  -0.034788   4.186153  -7.395853  24.340086  -9.982104  -3.258609   5.448506  15.669533  -0.000213  -0.000291  -8.427798 -12.379843  -0.078364  -0.978522   0.000038  -0.000021  -7.872669  -0.275730  10.389855  26.049864  -0.003616  -0.002372 -19.450989   5.883390   3.777223  -4.858898  -0.000110  -0.001403
 -3.643041   0.905514   4.468980  21.511330  80.501169 -26.552976   5.219199   1.031064  -0.133394  -5.326028  -2.762751   2.816364  -2.350057  -0.315453   1.451444  -2.513425  -4.128539   1.939613 -20.470666  -1.648866  13.431481  -0.088458  66.693954   0.070013   3.988140   4.782162 -25.673436  -3.394166   0.584960  -0.254698 -15.766099  -3.130541 -21.632855  -0.038145 -75.856186  -0.032134   4.117820  -7.468776  24.216209 -10.092333  -3.332058   5.314647  15.576043  -0.000247  -0.000221  -8.238623 -12.377952   0.055214  -0.933424   0.000015  -0.000017  -7.705926  -0.242822  10.294558  25.409632  -0.003379  -0.002154 -19.596018   5.741416   3.726518  -4.277682   0.000835  -0.001234
 -3.644792   0.905664   4.467304  21.769027  80.543285 -26.796041   5.141799   0.911217  -0.176472  -5.372118  -2.786780   2.731884  -2.333827  -0.306693   1.461945  -2.727081  -4.128792   1.758162 -20.956117  -1.569256  13.022725  -0.086169  67.318649   0.068476   4.021979   4.844345 -25.554689  -3.522185   0.426500  -0.166339 -16.256371  -3.209583 -21.219583  -0.034684 -76.021746  -0.029469   4.039971  -7.510389  24.165324 -10.207072  -3.393374   5.189195  15.482666  -0.000275  -0.000156  -8.041908 -12.365981   0.190431  -0.895792  -0.000000  -0.000013  -7.561717  -0.211879  10.205483  24.817928  -0.003136  -0.001857 -19.726663   5.606938   3.678081  -3.745493   0.001497  -0.001175
 -3.646530   0.905791   4.465592  21.967082  80.572437 -26.986587   5.075249   0.797142  -0.215598  -5.412334  -2.810523   2.652686  -2.316124  -0.298648   1.473109  -2.931875  -4.127331   1.571441 -21.414332  -1.487204  12.631134  -0.083047  67.904014   0.066114   4.060431   4.915419 -25.467021  -3.647328   0.276669  -0.072268 -16.719061  -3.288722 -20.827019  -0.031440 -76.176947  -0.026901   3.964439  -7.546957  24.143370 -10.320487  -3.444952   5.069848  15.391865  -0.000297  -0.000101  -7.842628 -12.348726   0.323804  -0.864891  -0.000009  -0.000011  -7.429616  -0.183590  10.120060  24.264245  -0.002908  -0.001541 -19.846810   5.480787   3.632329  -3.257465   0.001942  -0.001159
 -3.648240   0.905893   4.463852  22.110056  80.593418 -27.128434   5.016546   0.687590  -0.252398  -5.447526  -2.835201   2.577940  -2.298094  -0.291212   1.483996  -3.125384  -4.126293   1.387892 -21.844097  -1.406316  12.260338  -0.079259  68.451519   0.063142   4.100774   4.989878 -25.396732  -3.766555   0.135381   0.022064 -17.153025  -3.367067 -20.457286  -0.028416 -76.322727  -0.024466   3.893714  -7.585027  24.132072 -10.430556  -3.488965   4.955917  15.305346  -0.000311  -0.000056  -7.643637 -12.328446   0.454013  -0.839802  -0.000013  -0.000009  -7.306977  -0.157306  10.037906  23.746139  -0.002699  -0.001240 -19.959743   5.362624   3.588892  -2.810005   0.002222  -0.001150
 -3.649913   0.905971   4.462088  22.201120  80.608803 -27.224265   4.964004   0.581987  -0.287726  -5.478489  -2.861203   2.507198  -2.280367  -0.284323   1.494280  -3.306818  -4.126674   1.212261 -22.245747  -1.328591  11.911764  -0.074989  68.963031   0.059755   4.141163   5.064108 -25.336780  -3.878677   0.002491   0.113134 -17.558730  -3.443637 -20.110993  -0.025609 -76.459464  -0.022178   3.827545  -7.624767  24.124529 -10.536311  -3.526693   4.846960  15.224024  -0.000320  -0.000020  -7.446532 -12.306276   0.580422  -0.819706  -0.000015  -0.000007  -7.192381  -0.132605   9.958809  23.262129  -0.002511  -0.000967 -20.068040   5.252048   3.547413  -2.399763   0.002380  -0.001134
 -3.651545   0.906027   4.460303  22.243428  80.620140 -27.276730   4.916528   0.480057  -0.322129  -5.505819  -2.888532   2.440124  -2.263288  -0.277939   1.503836  -3.476127  -4.128912   1.047022 -22.620297  -1.255121  11.585589  -0.070413  69.440566   0.056111   4.180516   5.136012 -25.283209  -3.983265  -0.122200   0.198963 -17.937244  -3.517682 -19.787840  -0.023015 -76.587501  -0.020047   3.765234  -7.665163  24.117665 -10.637300  -3.558987   4.742510  15.148234  -0.000322   0.000008  -7.252173 -12.282863   0.702764  -0.803898  -0.000014  -0.000006  -7.084859  -0.109252   9.882478  22.810652  -0.002340  -0.000727 -20.173576   5.148613   3.507581  -2.023654   0.002448  -0.001107
 -3.652948   0.906436   4.458457  21.722621  80.606193 -26.602844   4.901931   0.375162  -0.481028  -5.493254  -2.899242   2.301206  -2.240231  -0.279572   1.517759  -3.659978  -4.087437   0.932532 -23.052518  -1.140001  11.258807  -0.064660  69.798324   0.051741   4.207256   5.237817 -25.096390  -4.099987  -0.219999   0.207430 -18.480874  -3.531067 -19.426520  -0.018872 -76.604572  -0.016483   3.676579  -7.761126  23.971727 -10.635609  -3.545095   4.463209  15.014721  -0.000383   0.000113  -7.037018 -12.205062   0.816207  -0.758738  -0.000009  -0.000004  -7.077058  -0.010623   9.616290  22.688464  -0.001998  -0.000577 -19.932338   5.113346   3.452106  -1.659435   0.002475  -0.000903
 -3.654130   0.906810   4.456653  21.119789  80.571742 -25.865893   4.863639   0.281275  -0.595948  -5.484783  -2.898754   2.156243  -2.213527  -0.282578   1.526880  -3.842121  -4.040004   0.779645 -23.466264  -1.018093  10.931973  -0.059524  70.127281   0.047788   4.216370   5.302969 -24.917254  -4.217849  -0.299555   0.224780 -18.996899  -3.536183 -19.081718  -0.015339 -76.613418  -0.013420   3.566357  -7.801200  23.886743 -10.612702  -3.510074   4.209281  14.876331  -0.000433   0.000199  -6.841272 -12.112063   0.918786  -0.668900   0.000002   0.000009  -7.038257   0.101416   9.369908  22.555910  -0.001731  -0.000443 -19.712170   5.084591   3.405242  -1.313424   0.002449  -0.000760
 -3.655146   0.907139   4.454896  20.467373  80.497905 -25.093173   4.807468   0.207069  -0.693503  -5.492731  -2.885609   2.020491  -2.189107  -0.285380   1.537423  -4.019351  -3.991041   0.611337 -23.859281  -0.893541  10.613319  -0.054958  70.435738   0.044267   4.225320   5.364891 -24.763739  -4.331710  -0.364119   0.250520 -19.481849  -3.538713 -18.752108  -0.012472 -76.620845  -0.010929   3.454603  -7.824693  23.835184 -10.592814  -3.464324   3.974185  14.747681  -0.000459   0.000288  -6.656770 -12.013779   1.013711  -0.581230   0.000015   0.000004  -6.978408   0.173685   9.124830  22.423989  -0.001499  -0.000243 -19.511336   5.012742   3.357136  -0.995694   0.002435  -0.000986
 -3.656023   0.907427   4.453208  19.820569  80.410028 -24.340876   4.740548   0.139816  -0.779068  -5.513270  -2.869853   1.896116  -2.167606  -0.288185   1.549094  -4.189037  -3.944122   0.440664 -24.229950  -0.771303  10.308452  -0.050781  70.725089   0.041042   4.236583   5.429528 -24.634196  -4.441301  -0.420078   0.282522 -19.937391  -3.541953 -18.438547  -0.010161 -76.627874  -0.008921   3.346555  -7.844178  23.803645 -10.571498  -3.413229   3.759806  14.627698  -0.000468   0.000353  -6.486357 -11.911928   1.101790  -0.494176   0.000028  -0.000000  -6.911717   0.234943   8.895233  22.299689  -0.001299  -0.000066 -19.324273   4.942849   3.315128  -0.705053   0.002364  -0.001190
 -3.656776   0.907677   4.451590  19.196852  80.318597 -23.624210   4.666594   0.075900  -0.855783  -5.542676  -2.855610   1.781849  -2.148736  -0.290951   1.560912  -4.349709  -3.900955   0.274262 -24.577805  -0.654126  10.019855  -0.046879  70.996036   0.038020   4.249384   5.495528 -24.522747  -4.546121  -0.470726   0.317940 -20.364829  -3.547071 -18.142049  -0.008307 -76.634914  -0.007308   3.243685  -7.863906  23.784843 -10.547855  -3.361124   3.562913  14.517349  -0.000464   0.000393  -6.328397 -11.811718   1.183485  -0.419713   0.000037  -0.000002  -6.841877   0.290630   8.681639  22.184301  -0.001127   0.000070 -19.149401   4.876767   3.277235  -0.438601   0.002251  -0.001327
 -3.657420   0.907901   4.450054  18.680593  80.267825 -23.022356   4.590582  -0.002134  -0.927486  -5.576950  -2.857039   1.675576  -2.132148  -0.294122   1.572290  -4.500705  -3.867227   0.116334 -24.903143  -0.546531   9.747411  -0.043166  71.248894   0.035134   4.261929   5.558873 -24.428069  -4.645990  -0.522807   0.354224 -20.765751  -3.557157 -17.864255  -0.006826 -76.642349  -0.006019   3.146818  -7.886686  23.770315 -10.514362  -3.329573   3.374777  14.415063  -0.000453   0.000393  -6.181731 -11.734812   1.259456  -0.385813   0.000037  -0.000002  -6.782942   0.388994   8.497996  22.077361  -0.000991   0.000083 -19.000583   4.873750   3.246269  -0.193250   0.002070  -0.001077
 -3.658004   0.908096   4.448469  17.885064  80.195457 -22.140675   4.551622  -0.095175  -0.975497  -5.593701  -2.841280   1.559108  -2.090184  -0.328216   1.586992  -4.668532  -3.776500  -0.070016 -25.288266  -0.380574   9.468170  -0.036478  71.331096   0.029744   4.245816   5.657624 -24.214278  -4.746966  -0.560745   0.354993 -21.342950  -3.505101 -17.556833  -0.003844 -76.588489  -0.003253   3.024483  -7.964039  23.613795 -10.453415  -3.307392   3.181707  14.333435  -0.000424   0.000411  -6.018188 -11.605642   1.296570  -0.455913  -0.000013  -0.000004  -6.670494   0.501517   8.306379  21.967709  -0.000882   0.000121 -18.864181   4.897277   3.203039   0.109132   0.002038  -0.000881
 -3.658528   0.908271   4.446888  17.119267  80.120174 -21.293814   4.512449  -0.184436  -1.012283  -5.611854  -2.821340   1.447570  -2.046271  -0.362917   1.602722  -4.835520  -3.680910  -0.275036 -25.657703  -0.212405   9.191612  -0.030791  71.401111   0.025137   4.210792   5.708893 -24.016139  -4.855941  -0.589955   0.368609 -21.895939  -3.454593 -17.256108  -0.001459 -76.533360  -0.001051   2.893770  -8.010450  23.528039 -10.395731  -3.282827   2.994410  14.260058  -0.000394   0.000413  -5.864329 -11.480495   1.329175  -0.516811  -0.000049  -0.000005  -6.559387   0.611710   8.119713  21.864500  -0.000790   0.000148 -18.740127   4.922553   3.161013   0.388148   0.001982  -0.000723
